<svg width="52" height="97" viewBox="0 0 52 97" fill="none" xmlns="http://www.w3.org/2000/svg">
<g clip-path="url(#clip0_91_730)">
<path d="M8.98669 12.0737V30.7889H42.2985V12.0737H8.98669ZM16.9689 25.7276C14.5966 25.7276 12.6726 23.8036 12.6726 21.4313C12.6726 19.0591 14.5966 17.1428 16.9689 17.1428C19.3411 17.1428 21.2652 19.0591 21.2652 21.4313C21.2652 23.8036 19.3411 25.7276 16.9689 25.7276ZM34.3086 25.7276C31.9441 25.7276 30.02 23.8036 30.02 21.4313C30.02 19.0591 31.9441 17.1428 34.3086 17.1428C36.6731 17.1428 38.6049 19.0591 38.6049 21.4313C38.6049 23.8036 36.6809 25.7276 34.3086 25.7276Z" fill="#0066FF"/>
<path d="M47.2825 33.1921H4.0104V42.5497H47.2825V33.1921Z" fill="#0066FF"/>
<path d="M34.3164 7.07422H15.8252V10.5437H34.3164V7.07422Z" fill="#0066FF"/>
<path d="M39.0763 45.9883H12.2089V78.6433H39.0763V45.9883Z" fill="#0066FF"/>
<path d="M10.2771 45.9883H0V72.0907H10.2771V45.9883Z" fill="#0066FF"/>
<path d="M24.7733 81.2009H14.4962V96.2766H24.7733V81.2009Z" fill="#0066FF"/>
<path d="M36.789 81.2009H26.5119V96.2766H36.789V81.2009Z" fill="#0066FF"/>
<path d="M51.2852 45.9883H41.0081V72.0907H51.2852V45.9883Z" fill="#0066FF"/>
<path d="M26.6742 0.513916H23.4674V5.55203H26.6742V0.513916Z" fill="#0066FF"/>
</g>
<defs>
<clipPath id="clip0_91_730">
<rect width="51.2852" height="95.7628" fill="white" transform="translate(0 0.513916)"/>
</clipPath>
</defs>
</svg>
