<svg width="39" height="97" viewBox="0 0 39 97" fill="none" xmlns="http://www.w3.org/2000/svg">
<path d="M13.4237 96.2768C12.7854 95.9728 12.0862 95.747 11.513 95.3431C9.96715 94.2575 9.52423 92.6595 9.52423 90.8444C9.53725 73.9482 9.53291 57.0519 9.52857 40.1557C9.52857 36.5385 9.52857 32.9256 9.52857 29.3084C9.52857 28.8003 9.59805 28.3096 8.81207 28.2966C8.0261 28.2879 7.99136 28.7222 7.99136 29.3171C8.00005 36.456 7.99136 43.5949 8.00439 50.7337C8.00439 52.1016 7.58752 53.2567 6.44547 54.0557C5.28171 54.872 4.01373 54.998 2.73272 54.3596C1.46475 53.7257 0.722197 52.6748 0.700485 51.2418C0.661404 48.8101 0.678773 46.3783 0.678773 43.9466C0.678773 37.9628 0.683116 31.9746 0.678773 25.9908C0.678773 22.9468 1.69489 20.3804 4.144 18.4828C5.42935 17.4884 6.88839 16.811 8.51679 16.8023C15.9336 16.7545 23.3547 16.6764 30.7716 16.8023C34.9316 16.8761 38.2014 20.0895 38.7702 24.2148C38.8571 24.8314 38.8875 25.4567 38.8875 26.0776C38.8962 34.2457 38.9135 42.4137 38.8614 50.5818C38.8571 51.4676 38.5965 52.4533 38.1536 53.2133C37.3894 54.5203 35.7393 55.0023 34.2976 54.6028C32.7734 54.1773 31.7182 52.944 31.5923 51.3851C31.5445 50.7641 31.5662 50.1388 31.5662 49.5135C31.5662 42.7785 31.5619 36.0478 31.5706 29.3127C31.5706 28.7178 31.5358 28.2575 30.7498 28.2966C30.2374 28.3227 29.9986 28.5007 30.0333 29.0218C30.0507 29.2997 30.0333 29.5819 30.0333 29.8642C30.0333 50.0042 30.0073 70.1399 30.0594 90.2799C30.0681 93.2545 29.0997 95.3518 26.1426 96.2724H24.4577C21.2704 94.9436 20.5409 93.8363 20.5409 90.306C20.5409 78.7161 20.5409 67.1219 20.5409 55.5321C20.5409 55.2498 20.6017 54.9459 20.5148 54.6984C20.441 54.4899 20.2109 54.2424 20.0111 54.199C19.1339 53.9992 19.0037 54.4899 19.008 55.2542C19.0254 67.1567 19.0167 79.0592 19.0254 90.9617C19.0254 92.5249 18.6997 93.9753 17.4491 94.9871C16.7673 95.5386 15.8945 95.8512 15.1085 96.2724H13.4237V96.2768Z" fill="#0F0F0F"/>
<path d="M19.7461 14.5616C15.8901 14.5399 12.7288 11.3699 12.7462 7.53558C12.7679 3.69256 15.9378 0.522618 19.7722 0.513933C23.6282 0.505248 26.9024 3.79678 26.8199 7.60506C26.7374 11.5002 23.6065 14.5789 19.7461 14.5616Z" fill="#0F0F0F"/>
</svg>
