<svg width="115" height="71" viewBox="0 0 115 71" fill="none" xmlns="http://www.w3.org/2000/svg">
<path d="M57.2508 1H5.92664V45.3199H57.2508V1Z" stroke="#0066FF" stroke-width="2" stroke-miterlimit="10"/>
<path d="M33.3529 70.0001C38.8243 70.0001 43.2597 65.5647 43.2597 60.0933C43.2597 54.622 38.8243 50.1865 33.3529 50.1865C27.8815 50.1865 23.4461 54.622 23.4461 60.0933C23.4461 65.5647 27.8815 70.0001 33.3529 70.0001Z" stroke="#0066FF" stroke-width="2" stroke-miterlimit="10"/>
<path d="M87.5101 70.0001C92.9814 70.0001 97.4169 65.5647 97.4169 60.0933C97.4169 54.622 92.9814 50.1865 87.5101 50.1865C82.0387 50.1865 77.6033 54.622 77.6033 60.0933C77.6033 65.5647 82.0387 70.0001 87.5101 70.0001Z" stroke="#0066FF" stroke-width="2" stroke-miterlimit="10"/>
<path d="M97.4169 60.0933H114.328" stroke="#0066FF" stroke-width="2" stroke-miterlimit="10"/>
<path d="M77.586 60.0933H43.2598" stroke="#0066FF" stroke-width="2" stroke-miterlimit="10"/>
<path d="M23.4287 60.0933H0" stroke="#0066FF" stroke-width="2" stroke-miterlimit="10"/>
<path d="M66.9491 60.0932V1H87.5101L107.497 24.9501V60.0932" stroke="#0066FF" stroke-width="2" stroke-miterlimit="10"/>
<path d="M76.3693 11.689V24.1333H94.6186L83.9123 11.689H76.3693Z" stroke="#0066FF" stroke-width="2" stroke-miterlimit="10"/>
<path d="M16.3549 19.649V28.9127H33.3529V36.7687L45.1889 24.9326L33.2834 13.0271V19.649H16.3549Z" stroke="#0066FF" stroke-width="2" stroke-miterlimit="10"/>
</svg>
