<svg width="93" height="94" viewBox="0 0 93 94" fill="none" xmlns="http://www.w3.org/2000/svg">
<path d="M36.269 65.6373C52.4884 65.6373 65.6369 52.4888 65.6369 36.2693C65.6369 20.0498 52.4884 6.90137 36.269 6.90137C20.0495 6.90137 6.901 20.0498 6.901 36.2693C6.901 52.4888 20.0495 65.6373 36.269 65.6373Z" stroke="#0066FF" stroke-width="2" stroke-miterlimit="10"/>
<path d="M36.2691 70.6158C55.2381 70.6158 70.6155 55.2383 70.6155 36.2693C70.6155 17.3003 55.2381 1.92285 36.2691 1.92285C17.3 1.92285 1.92261 17.3003 1.92261 36.2693C1.92261 55.2383 17.3 70.6158 36.2691 70.6158Z" stroke="#0066FF" stroke-width="2" stroke-miterlimit="10"/>
<path d="M91 82.2815L68.6146 59.8961L59.1453 69.3654L81.5307 91.7508L91 82.2815Z" stroke="#0066FF" stroke-width="2" stroke-miterlimit="10"/>
<path d="M75.8927 71.6521L62.5105 58.2699L57.5305 63.2499L70.9127 76.632L75.8927 71.6521Z" stroke="#0066FF" stroke-width="2" stroke-miterlimit="10"/>
<path d="M36.269 40.3978C41.4999 40.3978 45.7403 36.1573 45.7403 30.9265C45.7403 25.6956 41.4999 21.4552 36.269 21.4552C31.0382 21.4552 26.7977 25.6956 26.7977 30.9265C26.7977 36.1573 31.0382 40.3978 36.269 40.3978Z" stroke="#0066FF" stroke-width="2" stroke-miterlimit="10"/>
<path d="M17.6735 59.0108C20.3622 51.7599 27.3529 46.5906 35.5406 46.5906C43.7282 46.5906 51.274 52.1936 53.7199 59.8955" stroke="#0066FF" stroke-width="2" stroke-miterlimit="10"/>
</svg>
