<svg width="71" height="71" viewBox="0 0 71 71" fill="none" xmlns="http://www.w3.org/2000/svg">
<path d="M46.814 42.9478C46.814 45.1084 46.0036 46.9293 44.3576 48.4384L44.3242 48.4551L44.2735 48.5009C42.6074 50.0068 40.1318 50.8928 36.7594 51.0605L36.2842 51.0842V51.5599V56.2649H35.0242V51.6113V51.1377L34.5513 51.112C32.3906 50.9948 30.3701 50.5765 28.4869 49.8599L28.4855 49.8593C26.7315 49.1977 25.3578 48.3754 24.332 47.4035L25.1873 45.7262C26.2213 46.6063 27.4858 47.347 28.9926 47.9647C30.758 48.6885 32.5922 49.0936 34.5093 49.2167L35.0413 49.2509V48.7177V36.8182V36.4263L34.6607 36.3327C32.5879 35.823 30.8852 35.2825 29.5299 34.7135C28.2201 34.1638 27.1388 33.3409 26.2648 32.2726C25.4319 31.2547 24.9909 29.8704 24.9909 28.0862C24.9909 25.8943 25.7738 24.0759 27.3653 22.5969C28.9504 21.1239 31.3277 20.2066 34.5824 19.9381L35.0413 19.9003V19.4398V14.7349H36.3014V19.3885V19.8689L36.7814 19.8881C38.4533 19.9549 40.0882 20.2223 41.6535 20.7052C43.0717 21.1427 44.3124 21.6986 45.3581 22.3797L44.6148 24.1366C43.4916 23.4718 42.3038 22.9403 41.0633 22.5422C39.6383 22.0847 38.2257 21.8192 36.8266 21.7484L36.3014 21.7218V22.2478V34.2329V34.6247L36.6818 34.7184C38.8955 35.2633 40.7043 35.805 42.0979 36.3421C43.4435 36.8775 44.5557 37.6682 45.4764 38.75C46.3441 39.7889 46.814 41.1737 46.814 42.9478ZM34.3778 34.1337L35.0071 34.3022V33.6507V22.3334V21.7893L34.4649 21.8352C32.1818 22.0283 30.3608 22.6485 29.1168 23.7982C27.8875 24.9343 27.2612 26.3331 27.2612 27.9835C27.2612 29.6305 27.9051 31.0428 29.2192 31.9704C30.4528 32.8412 32.1782 33.5449 34.3778 34.1337ZM36.9055 36.9153L36.2842 36.76V37.4004V48.7177V49.2589L36.8237 49.2162C39.2526 49.024 41.1684 48.4255 42.4794 47.3392C43.7881 46.2549 44.4753 44.8488 44.4753 43.1532C44.4753 41.3818 43.7927 39.9809 42.4015 39.0718C41.099 38.2041 39.2549 37.5027 36.9055 36.9153Z" fill="#0066FF" stroke="#0066FF"/>
<path d="M70 35.5C70 53.3407 56.4568 68.031 39.0784 69.8288C39.0784 69.8117 39.0442 69.8117 39.027 69.8288C37.8628 69.9315 36.6985 70 35.5 70C16.4437 70 1 54.5563 1 35.5C1 16.4437 16.4437 1 35.5 1C36.6985 1 37.8628 1.06849 39.027 1.17122C39.027 1.17122 39.0613 1.17122 39.0784 1.17122C56.4568 2.96898 70 17.6593 70 35.5Z" stroke="#0066FF" stroke-width="2" stroke-miterlimit="10"/>
<path d="M35.5 63.7677C51.1119 63.7677 63.7678 51.1118 63.7678 35.4999C63.7678 19.8881 51.1119 7.23218 35.5 7.23218C19.8882 7.23218 7.2323 19.8881 7.2323 35.4999C7.2323 51.1118 19.8882 63.7677 35.5 63.7677Z" stroke="#0066FF" stroke-width="2" stroke-miterlimit="10"/>
</svg>
