<svg width="116" height="104" viewBox="0 0 116 104" fill="none" xmlns="http://www.w3.org/2000/svg">
<path d="M80.6411 73.0058H43.3694V22.0082H69.3647L80.6411 33.2846V73.0058Z" stroke="#0066FF" stroke-width="2" stroke-miterlimit="10"/>
<path d="M69.3647 22.0082V33.2846H80.6411" stroke="#0066FF" stroke-width="2" stroke-miterlimit="10"/>
<path d="M50.2323 40.964H72.6307" stroke="#0066FF" stroke-width="2" stroke-miterlimit="10"/>
<path d="M50.2323 48.6434H72.6307" stroke="#0066FF" stroke-width="2" stroke-miterlimit="10"/>
<path d="M50.2323 56.3228H72.6307" stroke="#0066FF" stroke-width="2" stroke-miterlimit="10"/>
<path d="M72.6308 73.0058V81.0162H35.359V30.0186H43.3695" stroke="#0066FF" stroke-width="2" stroke-miterlimit="10"/>
<path d="M106.968 63.9582C101.429 85.827 81.6122 102.024 58.0001 102.024C30.107 102.024 7.48792 79.4053 7.48792 51.5122" stroke="#0066FF" stroke-width="2" stroke-miterlimit="10"/>
<path d="M9.25317 38.2497C15.079 16.8002 34.6968 1 58 1C85.8931 1 108.512 23.619 108.512 51.5122" stroke="#0066FF" stroke-width="2" stroke-miterlimit="10"/>
<path d="M13.9756 58.0221L7.46574 51.5122L1 57.9779" stroke="#0066FF" stroke-width="2" stroke-miterlimit="10"/>
<path d="M102.024 45.3995L108.534 51.9094L115 45.4437" stroke="#0066FF" stroke-width="2" stroke-miterlimit="10"/>
</svg>
