<svg width="101" height="84" viewBox="0 0 101 84" fill="none" xmlns="http://www.w3.org/2000/svg">
<path d="M81.6623 16.6355H18.3555V56.0199H81.6623V16.6355Z" stroke="#0066FF" stroke-width="2" stroke-miterlimit="10"/>
<path d="M47.7504 56.0198V61.0405H33.7305V67.3469H66.2873V61.0405H52.25V56.0198" stroke="#0066FF" stroke-width="2" stroke-miterlimit="10"/>
<path d="M18.3555 29.6653H81.6623" stroke="#0066FF" stroke-width="2" stroke-miterlimit="10"/>
<path d="M18.3555 42.8513H81.6623" stroke="#0066FF" stroke-width="2" stroke-miterlimit="10"/>
<path d="M25.3569 36.3364H44.5714" stroke="#0066FF" stroke-width="2" stroke-miterlimit="10"/>
<path d="M67.1561 36.3364H72.368" stroke="#0066FF" stroke-width="2" stroke-miterlimit="10"/>
<path d="M53.0665 36.3364H61.8398" stroke="#0066FF" stroke-width="2" stroke-miterlimit="10"/>
<path d="M25.3569 23.0115H44.5714" stroke="#0066FF" stroke-width="2" stroke-miterlimit="10"/>
<path d="M67.1561 23.0115H72.368" stroke="#0066FF" stroke-width="2" stroke-miterlimit="10"/>
<path d="M53.0665 23.0115H61.8398" stroke="#0066FF" stroke-width="2" stroke-miterlimit="10"/>
<path d="M25.3569 49.4355H44.5714" stroke="#0066FF" stroke-width="2" stroke-miterlimit="10"/>
<path d="M67.1561 49.4355H72.368" stroke="#0066FF" stroke-width="2" stroke-miterlimit="10"/>
<path d="M53.0665 49.4355H61.8398" stroke="#0066FF" stroke-width="2" stroke-miterlimit="10"/>
<path d="M5.32585 9.6517C7.71495 9.6517 9.6517 7.71495 9.6517 5.32585C9.6517 2.93675 7.71495 1 5.32585 1C2.93675 1 1 2.93675 1 5.32585C1 7.71495 2.93675 9.6517 5.32585 9.6517Z" stroke="#0066FF" stroke-width="2" stroke-miterlimit="10"/>
<path d="M5.32585 82.9998C7.71495 82.9998 9.6517 81.0631 9.6517 78.674C9.6517 76.2849 7.71495 74.3481 5.32585 74.3481C2.93675 74.3481 1 76.2849 1 78.674C1 81.0631 2.93675 82.9998 5.32585 82.9998Z" stroke="#0066FF" stroke-width="2" stroke-miterlimit="10"/>
<path d="M94.6921 82.9998C97.0812 82.9998 99.0179 81.0631 99.0179 78.674C99.0179 76.2849 97.0812 74.3481 94.6921 74.3481C92.303 74.3481 90.3662 76.2849 90.3662 78.674C90.3662 81.0631 92.303 82.9998 94.6921 82.9998Z" stroke="#0066FF" stroke-width="2" stroke-miterlimit="10"/>
<path d="M94.6921 9.6517C97.0812 9.6517 99.0179 7.71495 99.0179 5.32585C99.0179 2.93675 97.0812 1 94.6921 1C92.303 1 90.3662 2.93675 90.3662 5.32585C90.3662 7.71495 92.303 9.6517 94.6921 9.6517Z" stroke="#0066FF" stroke-width="2" stroke-miterlimit="10"/>
<path d="M90.3662 78.6743H9.63428" stroke="#0066FF" stroke-width="2" stroke-miterlimit="10"/>
<path d="M94.692 9.63428V74.3483" stroke="#0066FF" stroke-width="2" stroke-miterlimit="10"/>
<path d="M9.63428 5.32593H90.3662" stroke="#0066FF" stroke-width="2" stroke-miterlimit="10"/>
<path d="M5.32593 74.3483V9.63428" stroke="#0066FF" stroke-width="2" stroke-miterlimit="10"/>
</svg>
