<svg width="100" height="105" viewBox="0 0 100 105" fill="none" xmlns="http://www.w3.org/2000/svg">
<path d="M50.0097 2L63.2914 11.6429H79.7116L84.7832 27.2443L98.0421 36.8872L92.9705 52.4886L98.0421 68.0901L84.7832 77.7329L79.7116 93.3344H63.2914L50.0097 103L36.7507 93.3344H20.3306L15.259 77.7329L2 68.0901L7.07161 52.4886L2 36.8872L15.259 27.2443L20.3306 11.6429H36.7507L50.0097 2Z" stroke="#0066FF" stroke-width="2" stroke-miterlimit="10"/>
<path d="M31.3602 51.3715V51.3532L31.2458 51.2146C29.7221 49.3691 28.9495 46.9438 28.9495 43.8914C28.9495 40.8373 29.723 38.3913 31.2439 36.5705C32.7601 34.7553 34.7325 33.8389 37.2281 33.8389C39.7234 33.8389 41.6519 34.7325 43.1918 36.5504C44.735 38.3722 45.5295 40.7951 45.5295 43.8914C45.5295 46.9889 44.7345 49.4341 43.1918 51.2553C41.6529 53.072 39.6794 53.9668 37.2281 53.9668C34.8387 53.9668 32.8618 53.0951 31.3602 51.3715ZM32.438 37.7021L32.438 37.7021L32.4358 37.7052C31.2854 39.2716 30.7241 41.3422 30.7241 43.8914C30.7241 46.4375 31.284 48.533 32.4368 50.0792C33.6061 51.6705 35.2383 52.4423 37.2281 52.4423C39.2233 52.4423 40.8044 51.6669 41.9924 50.1076C43.1722 48.5591 43.7322 46.4603 43.7322 43.8914C43.7322 41.3259 43.1736 39.2019 41.9912 37.6738C40.8026 36.1146 39.1987 35.3406 37.2281 35.3406C35.2577 35.3406 33.6053 36.1375 32.438 37.7021ZM67.0693 69.5657L67.0675 69.5679C65.5536 71.4016 63.5836 72.2973 61.0851 72.2973C58.5936 72.2973 56.6641 71.3838 55.1223 69.5641C53.577 67.7177 52.7837 65.2932 52.7837 62.2447C52.7837 59.1938 53.5783 56.7482 55.1215 54.9264C56.6624 53.1072 58.6371 52.1922 61.0851 52.1922C63.5361 52.1922 65.5531 53.1093 67.0682 54.9224C68.5914 56.7678 69.3638 59.1929 69.3638 62.2447C69.3638 65.2989 68.5903 67.7449 67.0693 69.5657ZM65.8752 68.4341L65.8775 68.431C67.0278 66.8646 67.5892 64.794 67.5892 62.2447C67.5892 59.6989 67.0293 57.6035 65.8766 56.0573C64.7073 54.4657 63.0751 53.6939 61.0851 53.6939C59.09 53.6939 57.5089 54.4693 56.3208 56.0286C55.1411 57.5771 54.5811 59.6759 54.5811 62.2447C54.5811 64.8102 55.1397 66.9343 56.322 68.4624C57.5106 70.0216 59.1145 70.7956 61.0851 70.7956C63.0556 70.7956 64.7079 69.9987 65.8752 68.4341ZM35.1729 72.0244L61.0762 34.089H63.1403L37.237 72.0244H35.1729Z" fill="#0066FF" stroke="#0066FF"/>
</svg>
